<?xml version="1.0" standalone="no"?>
<!DOCTYPE svg PUBLIC "-//W3C//DTD SVG 20010904//EN"
 "http://www.w3.org/TR/2001/REC-SVG-20010904/DTD/svg10.dtd">
<svg version="1.0" xmlns="http://www.w3.org/2000/svg"
 width="1328.000000pt" height="1328.000000pt" viewBox="0 0 1328.000000 1328.000000"
 preserveAspectRatio="xMidYMid meet">
<metadata>
Created by potrace 1.14, written by Peter Selinger 2001-2017
</metadata>
<g transform="translate(0.000000,1328.000000) scale(0.100000,-0.100000)"
fill="#000000" stroke="none">
<path d="M109 10808 c-3 -7 -4 -6074 -2 -6083 3 -7 557 -10 1766 -9 969 1
1762 2 1762 4 0 2 41 4 90 6 50 1 101 7 116 12 16 6 31 7 42 1 10 -6 17 -6 17
-1 0 5 11 8 25 7 14 -2 25 0 25 4 0 3 21 6 48 5 26 0 52 3 58 8 7 5 25 8 41 6
16 -1 35 2 43 7 8 5 25 10 39 12 53 6 86 11 86 13 0 1 9 4 20 5 17 3 43 8 125
30 8 2 16 4 18 5 4 4 21 7 41 9 11 0 26 7 33 14 7 7 20 13 28 13 8 0 31 6 50
13 19 8 41 13 48 12 6 -1 12 3 12 9 0 6 5 8 10 5 6 -4 17 -1 25 5 8 7 15 9 15
4 0 -5 4 -4 8 3 4 6 16 13 27 15 11 1 26 9 33 16 8 7 18 10 23 7 5 -4 9 -2 9
4 0 6 12 14 28 17 15 4 29 10 32 13 8 10 84 45 93 43 4 -1 7 3 7 9 0 6 7 9 15
5 10 -3 15 1 15 11 0 9 3 13 6 10 4 -3 18 3 32 13 13 11 31 20 38 20 7 0 19 9
27 20 8 11 17 17 21 13 3 -4 13 3 22 15 8 12 20 22 25 22 11 0 27 12 70 52 17
15 31 27 32 26 7 -4 47 29 47 39 0 7 7 13 15 13 8 0 15 5 15 10 0 6 5 10 11
10 6 0 41 32 79 70 38 39 73 70 79 70 6 0 11 5 11 11 0 5 36 46 80 89 44 43
80 83 80 88 0 4 10 18 23 29 26 24 49 53 84 106 14 20 30 37 34 37 5 0 9 7 9
15 0 9 7 18 15 21 8 4 15 12 15 20 0 8 9 19 19 26 10 6 17 17 14 23 -2 7 3 15
12 19 9 3 14 10 10 15 -3 6 1 13 9 18 8 4 16 15 18 23 2 8 11 21 21 28 9 7 17
20 17 28 0 8 4 14 9 14 5 0 11 10 15 23 3 13 15 34 26 47 11 13 20 29 20 35 0
7 7 18 15 25 8 7 13 15 11 19 -3 4 -1 13 5 21 5 8 9 11 10 5 0 -5 2 -20 3 -33
2 -13 -1 -25 -6 -28 -5 -3 -5 -11 -1 -17 10 -15 10 -38 0 -54 -5 -7 -5 -13 0
-13 10 0 9 -102 -1 -118 -4 -7 -4 -12 1 -12 4 0 7 -42 5 -92 -1 -51 -2 -97 -2
-103 0 -5 1 -29 3 -52 2 -24 -1 -43 -6 -43 -6 0 -6 -5 0 -12 5 -7 7 -38 6 -68
-4 -74 -4 -69 0 -117 2 -24 -1 -43 -6 -43 -6 0 -6 -5 0 -12 10 -15 10 -228 -1
-246 -4 -7 -3 -12 1 -12 5 0 7 -28 6 -63 -2 -34 -3 -69 -3 -77 0 -8 0 -44 0
-80 0 -36 0 -71 0 -77 0 -7 0 -26 0 -43 0 -16 0 -36 0 -42 0 -7 1 -29 3 -48
l2 -35 893 0 c490 -1 893 2 893 5 1 3 2 364 3 803 1 526 -2 801 -9 805 -5 4
-166 7 -356 7 l-345 0 -100 100 c-54 55 -112 110 -128 123 l-29 23 -29 -28
c-15 -15 -28 -23 -28 -19 0 4 -11 -4 -24 -18 -13 -15 -28 -26 -34 -26 -6 0
-12 -3 -14 -7 -1 -5 -25 -19 -53 -33 -27 -13 -62 -32 -77 -43 -16 -10 -28 -14
-28 -9 0 6 -10 5 -25 -1 -14 -7 -25 -15 -25 -19 0 -4 -7 -5 -15 -2 -8 4 -15 2
-15 -4 0 -5 -24 -14 -52 -21 -29 -6 -62 -14 -73 -17 -11 -3 -33 -7 -50 -9 -16
-2 -30 -4 -30 -5 0 -5 -46 -11 -77 -11 -20 1 -39 -3 -42 -7 -10 -16 -407 -3
-456 15 -20 7 -61 15 -82 14 -10 0 -18 5 -18 11 0 6 -9 8 -20 5 -11 -3 -20 -1
-20 4 0 5 -9 9 -19 9 -11 0 -23 5 -26 10 -4 6 -11 8 -16 5 -5 -4 -9 -2 -9 4 0
5 -13 12 -30 16 -16 4 -30 11 -30 16 0 6 -5 7 -12 3 -6 -4 -16 0 -22 8 -9 12
-44 31 -53 29 -4 -1 -53 41 -83 70 -15 15 -37 32 -49 38 -12 7 -19 16 -16 22
4 5 1 9 -5 9 -6 0 -8 5 -5 10 3 6 0 10 -7 10 -8 0 -20 10 -28 21 -8 12 -19 27
-25 33 -25 29 -87 153 -101 201 -30 101 -50 295 -31 295 5 0 7 12 6 28 -2 15
0 32 4 39 4 6 10 26 13 45 2 18 6 40 8 48 4 22 83 176 104 202 9 12 52 58 95
102 42 43 77 83 77 88 0 5 4 7 9 4 4 -3 18 2 29 12 54 46 63 52 71 52 5 0 14
7 21 15 7 8 16 12 21 9 5 -3 12 2 15 10 3 9 9 14 13 12 4 -3 17 4 30 13 20 15
22 21 12 39 -7 12 -18 22 -25 22 -8 0 -32 21 -55 48 -22 26 -48 54 -56 63 -8
9 -15 20 -15 26 0 6 -7 16 -15 23 -8 7 -13 16 -10 20 3 5 2 10 -2 12 -17 7
-53 89 -59 132 -4 25 -10 46 -13 46 -4 0 -5 37 -4 83 5 113 7 127 16 127 4 0
7 9 7 19 0 11 5 23 10 26 6 4 8 11 5 16 -4 5 -2 9 4 9 5 0 12 14 16 30 4 17
11 30 16 30 5 0 9 7 9 15 0 8 5 15 10 15 6 0 10 5 10 11 0 7 16 27 35 46 19
19 35 38 35 43 0 6 4 10 9 10 5 0 22 14 38 30 15 17 34 30 41 30 7 0 15 6 18
14 3 7 28 24 57 37 29 13 54 27 55 32 2 4 10 7 17 7 8 0 30 9 49 21 19 11 40
18 46 14 5 -3 10 -1 10 4 0 6 14 11 30 11 17 0 30 4 30 8 0 5 18 8 40 7 22 -1
40 1 40 5 0 4 71 6 158 4 171 -3 207 -6 218 -17 4 -4 17 -7 29 -7 12 0 25 -3
28 -6 4 -4 21 -8 39 -9 18 -2 34 -8 36 -14 2 -6 15 -11 28 -11 13 0 24 -5 24
-11 0 -5 4 -8 9 -4 5 3 16 -2 24 -10 9 -8 23 -15 31 -15 9 0 16 -4 16 -10 0
-5 6 -10 13 -10 7 0 19 -9 27 -20 8 -11 20 -20 27 -20 7 0 13 -4 13 -8 0 -5
11 -15 25 -22 14 -7 23 -15 20 -18 -2 -3 7 -13 20 -24 14 -11 25 -25 25 -32 0
-6 9 -18 20 -26 11 -8 20 -21 20 -28 0 -8 9 -27 21 -43 11 -16 17 -29 13 -29
-4 0 0 -8 8 -17 14 -17 19 -30 36 -103 6 -28 8 -181 2 -222 -3 -16 -8 -28 -13
-28 -4 0 -7 -6 -6 -12 2 -20 -12 -58 -22 -58 -5 0 -8 -3 -7 -7 4 -21 -27 -66
-97 -138 -42 -44 -81 -80 -86 -80 -5 0 -13 -5 -17 -11 -4 -5 -22 -16 -39 -23
-18 -8 -33 -19 -33 -25 0 -6 -10 -12 -22 -13 -11 -1 -25 -7 -29 -14 -4 -7 -14
-9 -23 -6 -35 14 -24 -16 23 -65 28 -29 51 -56 51 -62 0 -5 2 -7 5 -4 6 5 235
-221 235 -232 0 -4 7 -7 15 -7 8 0 13 2 10 5 -2 2 3 11 11 19 8 8 12 19 9 24
-4 5 -2 9 3 9 9 0 25 37 23 53 -1 4 3 7 9 7 5 0 10 4 10 9 0 5 7 25 15 45 8
20 15 38 15 41 0 3 7 20 17 38 9 17 16 35 15 39 -1 4 6 24 15 45 9 21 16 44
14 51 -1 6 3 12 10 12 6 0 9 7 6 15 -4 8 -2 17 4 21 6 3 8 12 5 19 -2 7 1 21
9 31 12 18 33 19 412 19 l399 0 32 -33 c17 -17 29 -32 26 -32 -3 0 4 -10 16
-22 11 -12 20 -26 20 -30 0 -5 5 -6 10 -3 6 3 10 0 10 -7 0 -13 28 -49 90
-115 16 -18 30 -37 30 -42 0 -6 6 -14 13 -18 8 -4 22 -21 33 -38 10 -16 28
-39 39 -51 52 -56 75 -85 75 -94 0 -5 6 -13 13 -17 6 -4 30 -30 52 -58 22 -27
43 -51 47 -53 5 -2 8 -8 8 -13 0 -5 9 -20 20 -32 10 -12 33 -37 50 -56 16 -19
30 -37 30 -40 0 -6 58 -73 100 -116 11 -12 20 -26 20 -32 0 -6 14 -23 31 -37
17 -14 27 -26 23 -26 -4 0 7 -16 26 -35 19 -19 30 -35 26 -35 -4 0 11 -18 33
-39 23 -22 41 -44 41 -49 0 -6 12 -20 26 -31 15 -12 23 -21 18 -21 -4 0 7 -14
24 -31 18 -17 32 -36 32 -43 0 -6 16 -24 35 -41 19 -16 35 -35 35 -42 0 -6 8
-18 18 -25 9 -7 25 -24 34 -38 9 -14 25 -35 37 -47 12 -12 21 -25 21 -27 0 -5
25 -35 70 -85 9 -9 29 -34 45 -56 31 -41 45 -58 83 -99 12 -14 22 -29 22 -34
0 -5 11 -18 25 -28 14 -10 25 -24 25 -29 0 -6 16 -26 35 -45 19 -19 35 -39 35
-45 0 -5 11 -19 25 -29 14 -10 25 -24 25 -30 0 -6 14 -24 31 -39 17 -14 28
-31 25 -36 -10 -15 21 -21 105 -21 49 0 79 4 79 11 0 5 15 23 32 40 18 16 29
29 24 29 -5 0 4 12 20 27 16 15 29 29 29 33 0 3 10 18 23 34 12 16 22 25 22
21 0 -5 14 13 31 38 17 26 35 44 40 41 5 -3 9 3 9 13 0 9 9 26 20 38 43 44 90
103 90 111 0 5 11 18 25 28 14 10 25 25 25 32 0 7 14 23 30 36 17 12 30 27 30
32 0 6 14 24 30 40 17 16 29 30 26 33 -2 2 6 15 18 27 65 71 86 96 86 105 0 5
13 20 28 33 15 12 29 28 30 33 3 10 49 68 90 112 12 13 22 28 22 33 0 5 11 17
25 28 14 11 25 24 25 29 0 5 14 22 30 38 17 16 28 35 26 42 -3 7 -1 12 3 10
10 -2 61 50 55 56 -3 2 11 18 31 35 19 17 35 35 35 39 0 4 14 22 30 40 17 18
30 34 30 37 0 6 23 35 73 90 15 17 27 34 27 37 0 4 14 21 30 37 17 17 30 34
30 37 0 4 13 19 28 33 16 15 31 35 35 45 3 9 11 17 17 17 6 0 9 4 5 9 -3 5 4
12 14 16 13 4 18 12 14 21 -3 8 -1 14 5 12 5 -2 10 0 11 5 1 4 9 15 19 26 9
10 28 33 42 51 14 17 30 37 35 44 6 6 26 31 45 56 19 24 42 52 50 60 8 9 24
28 35 43 26 35 48 37 35 2 -5 -14 -6 -25 -2 -25 4 0 8 -9 8 -20 0 -11 -4 -20
-9 -20 -4 0 -5 -5 -1 -12 11 -17 10 -68 0 -68 -6 0 -5 -5 1 -11 8 -8 8 -20 3
-35 -5 -13 -6 -24 -2 -24 9 0 8 -123 -2 -138 -4 -7 -4 -12 1 -12 4 0 8 -18 8
-40 0 -22 -4 -40 -10 -40 -7 0 -7 -3 0 -8 12 -8 14 -172 2 -172 -5 0 -5 -5 -1
-11 9 -16 10 -101 1 -117 -5 -6 -5 -12 0 -12 10 0 10 -131 -1 -148 -4 -6 -4
-12 1 -12 10 0 10 -131 -1 -148 -4 -6 -4 -12 1 -12 10 0 10 -131 -1 -148 -4
-6 -4 -12 1 -12 4 0 8 -41 8 -90 0 -50 -4 -90 -9 -90 -6 0 -5 -5 1 -11 8 -8 8
-20 3 -35 -5 -13 -6 -24 -2 -24 9 0 8 -123 -2 -138 -4 -7 -4 -12 1 -12 4 0 8
-18 8 -40 0 -22 -4 -40 -10 -40 -7 0 -7 -3 0 -8 12 -8 14 -172 2 -172 -5 0 -5
-5 -1 -11 9 -16 10 -101 1 -117 -5 -6 -5 -12 0 -12 10 0 10 -131 -1 -148 -4
-6 -4 -12 1 -12 10 0 10 -131 -1 -148 -4 -6 -4 -12 1 -12 10 0 10 -131 -1
-148 -4 -6 -4 -12 1 -12 4 0 8 -41 8 -90 0 -50 -4 -90 -9 -90 -6 0 -5 -5 1
-11 8 -8 8 -20 3 -35 -5 -13 -6 -24 -2 -24 9 0 8 -123 -2 -138 -4 -7 -4 -12 1
-12 12 0 10 -74 -2 -82 -7 -5 -7 -8 0 -8 6 0 9 -31 8 -78 l-2 -78 917 2 c504
0 920 2 923 3 3 0 6 1371 6 3046 l0 3045 -836 0 -836 0 -20 -27 c-18 -23 -59
-73 -174 -212 -20 -24 -44 -52 -53 -62 -10 -11 -15 -19 -10 -19 4 0 -1 -5 -10
-11 -10 -5 -18 -14 -18 -19 0 -6 -13 -23 -30 -38 -16 -16 -30 -32 -30 -36 0
-4 -12 -21 -27 -36 -39 -41 -55 -60 -49 -60 2 0 -8 -13 -22 -29 -15 -15 -44
-48 -65 -72 -21 -24 -47 -54 -58 -66 -10 -12 -19 -27 -19 -32 0 -6 -6 -14 -12
-18 -19 -12 -111 -123 -102 -123 4 0 -10 -15 -30 -34 -20 -19 -36 -37 -36 -40
0 -4 -11 -19 -24 -34 -85 -96 -115 -136 -109 -145 3 -6 2 -7 -3 -4 -5 3 -19
-6 -29 -20 -11 -14 -34 -40 -52 -58 -17 -18 -29 -35 -26 -38 2 -3 -5 -15 -16
-26 -12 -12 -21 -18 -21 -14 0 4 -8 -4 -17 -17 -10 -14 -15 -26 -13 -27 3 0
-8 -14 -25 -29 -16 -15 -29 -31 -28 -35 1 -3 -13 -21 -32 -38 -19 -17 -35 -36
-35 -40 0 -5 -12 -23 -27 -39 -52 -54 -88 -97 -88 -103 0 -5 -32 -42 -87 -100
-10 -11 -15 -19 -10 -19 4 0 -1 -5 -10 -11 -10 -5 -18 -15 -18 -20 0 -16 -27
-39 -35 -31 -5 4 -5 2 -1 -5 4 -7 -2 -18 -14 -25 -11 -7 -20 -18 -20 -25 0 -6
-8 -18 -18 -25 -10 -7 -23 -20 -28 -30 -5 -9 -24 -32 -41 -52 -18 -19 -33 -39
-33 -43 0 -5 -11 -17 -25 -27 -14 -10 -25 -23 -25 -28 0 -5 -10 -19 -21 -31
-12 -12 -34 -40 -50 -61 -16 -21 -29 -35 -29 -30 0 5 -12 -9 -27 -31 -42 -63
-69 -86 -64 -52 0 4 -5 7 -12 7 -7 0 -23 14 -37 32 -14 17 -35 42 -47 55 -13
13 -23 28 -23 33 0 4 -18 25 -39 46 -22 20 -39 40 -38 43 0 3 -10 19 -23 34
-14 16 -37 43 -52 60 -16 17 -28 35 -28 38 0 6 -14 23 -96 110 -13 14 -24 31
-24 37 0 5 -14 22 -30 35 -16 14 -30 29 -30 32 0 13 -48 64 -54 58 -3 -4 -6 2
-6 11 0 10 -16 33 -35 52 -20 19 -32 34 -28 34 5 0 3 4 -2 8 -6 4 -30 32 -55
62 -25 30 -51 61 -58 68 -6 8 -9 18 -6 24 4 6 2 8 -3 5 -6 -4 -19 5 -29 19
-11 15 -25 32 -31 39 -7 8 -13 17 -13 22 0 4 -9 14 -20 21 -11 7 -20 19 -20
28 0 8 -4 13 -8 10 -5 -3 -15 6 -22 19 -7 14 -17 25 -22 25 -4 0 -8 6 -8 14 0
7 -11 21 -25 30 -14 9 -25 23 -25 31 0 7 -11 22 -25 33 -13 11 -21 22 -18 26
3 3 -2 6 -11 6 -10 0 -16 5 -14 12 3 7 -8 23 -24 36 -15 13 -28 28 -28 33 0 5
-16 25 -35 43 -19 19 -35 39 -35 45 0 5 -8 16 -17 23 -10 7 -29 29 -42 48 -14
19 -33 41 -43 48 -10 7 -18 17 -18 22 0 9 -41 60 -87 107 -18 18 -33 35 -33
39 0 3 -11 20 -25 38 -14 17 -34 41 -43 52 -9 12 -21 19 -26 16 -5 -3 -6 0 -2
6 4 7 -10 29 -34 53 -22 22 -38 45 -35 49 3 5 -4 11 -15 15 -11 3 -20 12 -20
20 0 7 -7 16 -16 19 -9 4 -15 9 -12 12 3 3 -12 23 -33 45 -22 23 -37 45 -33
50 3 5 -2 9 -10 9 -9 0 -16 4 -16 8 0 8 -68 93 -115 144 -14 15 -25 32 -25 37
0 8 -256 11 -851 11 -679 0 -850 -3 -842 -12 5 -7 7 -38 6 -68 -4 -74 -4 -69
0 -117 2 -24 -1 -43 -6 -43 -6 0 -6 -5 0 -12 10 -15 10 -228 -1 -246 -4 -7 -3
-12 1 -12 5 0 7 -28 6 -62 -2 -35 -3 -70 -3 -78 0 -8 0 -44 0 -80 0 -36 0 -71
0 -77 0 -17 0 -99 0 -115 0 -7 1 -32 3 -55 2 -24 -1 -43 -6 -43 -4 0 -5 -6 0
-12 10 -18 10 -70 -1 -85 -5 -8 -5 -13 1 -13 4 0 7 -26 6 -57 -2 -32 -3 -62
-3 -68 0 -5 1 -62 3 -125 1 -63 -2 -121 -6 -127 -6 -8 -6 -13 0 -13 5 0 8 -19
6 -42 -4 -49 -4 -43 -1 -126 3 -69 0 -78 -20 -56 -7 8 -10 14 -6 14 3 0 1 7
-6 15 -7 8 -9 15 -4 15 5 0 4 4 -1 8 -6 4 -30 46 -53 94 -24 48 -48 88 -53 90
-5 2 -11 13 -12 26 0 12 -5 22 -9 22 -4 0 -8 6 -8 14 0 8 -4 16 -8 18 -5 2
-26 30 -47 63 -22 33 -44 63 -50 67 -5 4 -6 8 -1 8 5 0 0 8 -12 18 -11 10 -22
24 -24 31 -2 7 -16 28 -33 46 -65 70 -85 97 -78 108 3 7 3 9 -1 5 -8 -6 -103
87 -145 141 -13 18 -26 30 -28 28 -2 -3 -35 27 -72 64 -38 38 -73 69 -78 69
-5 0 -16 8 -24 18 -29 31 -67 60 -73 55 -3 -4 -6 0 -6 9 0 8 -12 21 -27 29
-16 8 -35 22 -44 31 -9 10 -21 18 -26 18 -5 0 -19 9 -31 20 -12 12 -22 17 -22
13 0 -4 -7 3 -16 15 -8 12 -20 20 -25 17 -5 -4 -9 -1 -9 4 0 6 -6 11 -13 11
-7 0 -28 13 -47 30 -19 16 -43 29 -52 30 -10 0 -18 5 -18 10 0 6 -5 10 -11 10
-6 0 -24 9 -40 21 -16 11 -29 17 -29 14 0 -3 -13 3 -29 14 -15 11 -31 18 -35
14 -3 -3 -6 -1 -6 6 0 7 -4 9 -10 6 -6 -3 -10 -1 -10 5 0 6 -4 9 -9 6 -5 -3
-14 1 -21 9 -7 8 -16 12 -21 9 -5 -3 -9 0 -9 6 0 6 -4 8 -10 5 -5 -3 -10 -1
-10 6 0 7 -3 10 -6 6 -4 -3 -23 2 -44 13 -21 11 -40 16 -44 13 -3 -4 -6 -2 -6
4 0 6 -7 14 -16 17 -9 4 -13 2 -8 -5 3 -6 -5 -3 -20 6 -14 10 -26 13 -26 9 0
-5 -4 -3 -8 3 -4 7 -18 14 -30 16 -12 2 -25 6 -28 10 -4 4 -16 7 -26 7 -10 0
-18 5 -18 11 0 6 -9 8 -20 4 -11 -4 -20 -2 -20 4 0 6 -3 10 -7 10 -15 -3 -73
14 -73 20 0 4 -10 7 -22 8 -30 2 -67 10 -114 26 -21 8 -45 12 -52 10 -6 -3
-12 0 -12 6 0 7 -11 9 -27 6 -15 -2 -30 0 -33 5 -3 6 -22 12 -41 15 -19 3 -47
8 -64 11 -16 2 -41 6 -55 8 -14 2 -32 6 -40 9 -24 9 -127 25 -205 31 -22 2
-47 6 -55 9 -21 8 -134 18 -202 19 -32 0 -58 3 -58 7 0 4 -51 9 -112 10 -138
4 -3048 12 -3049 9z m2863 -1240 c20 -1 35 -4 33 -7 -1 -3 9 -7 23 -7 15 -1
45 -4 67 -7 22 -4 54 -8 70 -10 17 -2 40 -9 53 -16 13 -7 22 -8 22 -2 0 7 8 7
23 2 39 -16 62 -24 72 -25 39 -6 212 -62 246 -81 14 -8 29 -12 32 -8 4 3 9 -2
13 -11 3 -9 10 -14 14 -11 4 3 20 -5 36 -17 16 -13 25 -16 20 -8 -5 11 -4 11
6 -1 7 -9 19 -14 27 -11 8 3 11 0 7 -7 -6 -10 6 -15 27 -12 4 0 7 -3 7 -9 0
-5 6 -10 13 -10 7 0 19 -9 27 -20 8 -11 20 -20 27 -20 7 0 18 -9 25 -20 7 -11
18 -20 25 -20 14 0 104 -86 97 -93 -2 -2 7 -9 20 -16 13 -7 29 -24 36 -37 7
-13 16 -21 20 -19 9 6 46 -46 42 -58 -1 -5 7 -11 18 -14 11 -3 20 -13 20 -22
0 -9 9 -22 20 -29 11 -7 20 -19 20 -27 0 -8 4 -15 9 -15 5 0 12 -11 15 -25 4
-14 14 -25 22 -25 10 0 14 -6 10 -15 -3 -8 -1 -15 4 -15 6 0 10 -7 10 -15 0
-7 8 -19 18 -24 9 -6 14 -11 10 -11 -4 0 4 -21 19 -47 15 -27 26 -49 25 -50
-4 -8 22 -63 30 -63 5 0 8 -6 5 -12 -2 -7 7 -42 20 -77 13 -35 21 -66 18 -69
-2 -3 0 -11 6 -18 6 -7 12 -31 14 -54 1 -22 7 -46 12 -53 6 -6 9 -24 8 -39 -1
-16 1 -28 6 -28 4 0 9 -21 12 -47 3 -27 8 -70 11 -98 4 -27 7 -86 9 -130 1
-44 5 -85 9 -91 9 -13 8 -323 -1 -328 -3 -2 -6 -45 -6 -95 0 -50 -3 -91 -7
-91 -4 0 -7 -21 -7 -47 0 -56 -11 -134 -21 -148 -4 -5 -6 -22 -5 -37 1 -16 -1
-28 -5 -28 -4 0 -7 -10 -6 -22 1 -13 -1 -32 -5 -43 -4 -11 -11 -29 -15 -40 -4
-11 -8 -27 -10 -35 -1 -8 -5 -22 -7 -30 -4 -14 -7 -24 -24 -67 -3 -10 -5 -24
-4 -30 1 -7 -2 -13 -7 -13 -6 0 -13 -12 -16 -27 -8 -34 -48 -117 -59 -121 -4
-2 -5 -8 -1 -13 3 -5 0 -9 -6 -9 -6 0 -10 -8 -8 -17 2 -10 -2 -17 -8 -16 -7 1
-15 -9 -18 -22 -4 -14 -11 -25 -16 -25 -6 0 -10 -7 -10 -15 0 -8 -9 -20 -20
-27 -11 -7 -20 -18 -20 -24 0 -15 -132 -144 -147 -144 -7 0 -13 -5 -13 -10 0
-6 -8 -14 -17 -17 -10 -4 -26 -14 -35 -23 -10 -9 -38 -27 -63 -39 -25 -12 -45
-27 -45 -32 0 -6 -4 -7 -10 -4 -5 3 -10 1 -10 -4 0 -6 -3 -10 -7 -9 -8 2 -123
-52 -133 -62 -3 -3 -12 -6 -20 -8 -8 -2 -31 -10 -50 -19 -19 -10 -39 -18 -45
-19 -5 -1 -35 -11 -67 -22 -31 -11 -59 -18 -62 -15 -3 4 -6 1 -6 -6 0 -7 -7
-11 -15 -8 -8 4 -17 2 -20 -3 -3 -4 -24 -12 -48 -16 -50 -9 -56 -11 -59 -14
-2 -1 -14 -3 -28 -4 -14 -1 -32 -6 -40 -11 -8 -5 -27 -8 -42 -6 -15 1 -33 -1
-40 -5 -7 -5 -26 -9 -43 -11 -27 -2 -61 -8 -75 -13 -3 -1 -9 -1 -15 0 -34 7
-61 7 -71 -1 -10 -8 -301 -11 -895 -9 l-96 0 0 1788 c0 983 3 1789 8 1792 6 4
899 3 1011 -2z m3115 -534 c-3 -3 -12 -4 -19 -1 -8 3 -5 6 6 6 11 1 17 -2 13
-5z"/>
<path d="M6146 8582 c-4 -3 -27 -5 -51 -5 -25 1 -45 -3 -45 -8 0 -5 -4 -8 -9
-6 -26 7 -109 -86 -103 -115 1 -5 -3 -8 -9 -8 -5 0 -7 -4 -4 -10 3 -5 0 -10
-7 -10 -8 0 -9 -3 -3 -8 6 -4 10 -33 10 -64 -1 -32 2 -58 6 -58 4 0 6 -8 5
-17 -2 -9 4 -26 13 -37 32 -41 103 -106 115 -106 8 0 19 -7 26 -15 7 -9 19
-14 27 -11 7 3 13 1 13 -4 0 -21 46 -14 72 12 14 15 29 24 32 21 3 -4 6 1 6
10 0 9 7 17 17 17 9 0 13 3 10 7 -4 3 2 13 13 20 11 8 18 19 15 24 -4 5 -1 9
4 9 6 0 11 7 11 15 0 8 4 15 9 15 5 0 7 9 4 20 -3 11 -1 20 4 20 11 0 11 100
-1 118 -4 6 -4 17 -1 22 3 6 2 10 -3 10 -6 0 -15 14 -21 30 -5 17 -17 33 -25
36 -9 3 -14 10 -11 14 7 11 -64 52 -76 45 -5 -4 -9 -2 -9 3 0 12 -26 23 -34
14z"/>
<path d="M7460 7475 c-7 -9 -10 -18 -7 -22 4 -3 -3 -21 -14 -40 -11 -18 -18
-33 -15 -33 4 0 -3 -18 -14 -40 -11 -22 -17 -40 -13 -40 5 0 3 -4 -2 -8 -9 -6
-35 -53 -40 -72 -8 -28 -41 -78 -48 -73 -6 4 -8 0 -4 -10 3 -10 2 -17 -3 -17
-6 0 -10 -7 -10 -15 0 -7 -8 -19 -17 -24 -10 -6 -14 -11 -10 -11 4 0 3 -9 -3
-20 -6 -11 -7 -20 -2 -20 14 0 52 -36 52 -49 0 -7 5 -9 10 -6 6 3 10 -1 10 -9
0 -9 6 -16 13 -16 6 0 21 -14 32 -30 11 -16 23 -30 28 -30 4 0 23 -17 42 -38
l34 -38 196 -1 c107 0 196 2 196 6 1 3 2 156 3 339 l1 332 -201 0 c-168 0
-204 -3 -214 -15z"/>
<path d="M5948 7443 c-12 -13 -25 -23 -29 -23 -9 0 -99 -89 -99 -99 0 -4 -10
-18 -22 -31 -13 -14 -22 -28 -20 -32 1 -5 -2 -8 -7 -8 -5 0 -12 -13 -16 -30
-4 -16 -10 -30 -14 -30 -4 0 -7 -22 -6 -50 0 -27 4 -50 9 -50 5 0 3 -6 -3 -14
-8 -10 -9 -20 -2 -33 11 -20 21 -50 20 -60 -1 -3 6 -10 15 -15 9 -5 16 -13 16
-18 0 -23 112 -106 129 -95 6 3 11 1 11 -5 0 -7 6 -10 13 -7 6 2 20 0 30 -5
25 -13 117 -18 117 -6 0 5 8 8 18 7 9 -2 40 1 67 6 28 5 53 8 58 7 4 -1 7 2 7
7 0 6 9 8 20 6 11 -2 20 1 20 6 0 5 6 9 13 8 18 -2 57 12 57 21 0 5 13 11 29
15 16 3 37 15 47 26 9 10 23 19 29 19 7 0 18 6 24 14 10 12 3 25 -38 68 -28
29 -51 57 -51 61 0 5 -4 5 -10 2 -5 -3 -10 1 -10 9 0 9 -8 16 -17 16 -9 0 -14
3 -11 6 5 5 -37 54 -47 54 -2 0 -17 14 -34 31 -17 17 -31 32 -31 34 0 10 -49
52 -54 47 -3 -3 -6 2 -6 11 0 10 -7 17 -17 17 -9 0 -14 3 -11 6 4 3 -20 29
-52 57 -32 29 -59 57 -59 62 -2 20 -62 11 -83 -12z"/>
<path d="M6506 4323 c-4 -4 -21 -8 -39 -9 -18 0 -40 -4 -49 -8 -9 -4 -22 -5
-28 -1 -5 3 -10 1 -10 -4 0 -6 -11 -11 -23 -11 -13 0 -27 -3 -31 -7 -4 -5 -11
-8 -14 -9 -17 -2 -86 -37 -99 -50 -8 -8 -18 -14 -23 -14 -23 0 -160 -162 -160
-189 0 -6 -4 -11 -9 -11 -6 0 -10 -8 -10 -17 0 -30 -6 -58 -13 -63 -4 -3 -8
-20 -10 -38 -1 -18 -5 -32 -8 -32 -3 0 -5 -31 -5 -70 0 -38 3 -70 8 -70 4 0 7
-20 7 -45 0 -25 4 -45 10 -45 5 0 7 -7 4 -15 -4 -8 -1 -15 6 -15 7 0 10 -7 6
-15 -3 -8 -2 -15 3 -15 8 0 34 -52 32 -64 0 -3 13 -20 30 -38 74 -81 115 -118
127 -118 7 0 11 -4 8 -8 -3 -5 13 -16 34 -26 22 -10 40 -22 40 -28 0 -5 6 -8
12 -6 7 3 21 -4 32 -13 10 -10 23 -16 28 -13 4 3 8 0 8 -7 0 -7 3 -10 6 -6 4
3 13 -1 21 -9 8 -8 19 -12 24 -9 5 4 9 1 9 -6 0 -7 3 -9 6 -6 4 4 19 -2 33
-12 14 -10 32 -16 39 -14 6 3 12 -1 12 -8 0 -7 3 -9 7 -6 3 4 12 2 20 -4 7 -6
13 -8 13 -5 0 4 10 -3 22 -14 12 -11 28 -18 34 -16 7 3 15 -2 18 -10 3 -8 14
-14 25 -14 10 0 33 -13 51 -30 18 -16 35 -30 40 -30 10 0 38 -70 38 -97 1 -13
-3 -23 -7 -23 -5 0 -14 -13 -20 -28 -10 -24 -71 -73 -71 -57 0 3 -9 1 -20 -5
-26 -14 -188 -16 -202 -2 -6 6 -21 7 -39 2 -20 -6 -28 -5 -26 3 1 6 -10 11
-25 11 -16 -1 -28 3 -28 7 0 5 -7 9 -15 9 -14 0 -42 11 -145 58 -19 9 -39 16
-43 17 -4 0 -12 7 -17 15 -5 8 -13 15 -17 16 -17 1 -83 38 -83 46 0 4 -9 8
-20 8 -22 0 -21 11 -21 -255 0 -201 1 -216 11 -210 6 3 10 2 10 -2 0 -8 51
-34 75 -38 6 -1 19 -5 30 -9 79 -30 93 -34 99 -29 3 4 6 1 6 -5 0 -7 13 -12
28 -12 15 0 34 -6 40 -12 10 -10 15 -10 22 2 6 10 10 11 10 3 0 -7 7 -10 15
-7 8 4 15 1 15 -6 0 -6 6 -10 13 -7 6 2 28 -1 47 -8 19 -7 44 -9 55 -5 11 4
23 3 27 -3 8 -12 288 -16 288 -4 0 4 23 7 50 7 28 0 50 4 50 9 0 5 11 8 25 5
14 -2 25 0 25 6 0 5 3 9 8 8 26 -6 162 55 162 73 0 5 5 7 11 4 6 -4 16 1 24
11 7 11 18 19 23 19 12 0 107 96 107 108 0 5 8 14 17 21 10 7 15 16 11 19 -3
4 -1 7 5 7 6 0 9 7 6 15 -4 8 -1 15 7 15 7 0 10 3 7 6 -4 3 0 20 7 38 23 55
28 87 27 191 -2 132 -5 165 -14 159 -4 -3 -8 3 -8 14 0 10 -3 22 -7 26 -5 4
-8 11 -8 14 0 4 -10 21 -23 39 -12 17 -22 34 -22 38 0 10 -108 115 -119 115
-5 0 -14 6 -18 13 -4 8 -24 22 -43 33 -19 10 -37 21 -40 24 -3 3 -17 11 -32
17 -16 7 -28 17 -28 22 0 6 -6 8 -13 5 -7 -2 -23 5 -35 16 -12 11 -22 18 -22
14 0 -3 -7 -1 -15 6 -8 7 -15 9 -15 5 0 -5 -8 -2 -17 6 -31 25 -80 49 -86 42
-4 -3 -9 2 -13 11 -3 9 -11 13 -16 10 -6 -4 -14 -1 -18 5 -4 7 -15 13 -24 15
-10 1 -22 9 -27 17 -5 8 -9 11 -9 6 0 -14 -56 21 -101 63 -37 34 -43 46 -45
85 -1 25 2 45 7 45 6 0 7 5 4 10 -3 6 -2 10 4 10 5 0 13 9 16 21 4 11 9 18 12
15 3 -3 18 1 34 9 33 18 244 21 254 5 4 -6 11 -8 16 -4 5 3 15 1 22 -4 7 -6
14 -10 17 -10 22 4 274 -114 265 -124 -3 -2 11 -11 30 -18 19 -8 35 -17 35
-22 0 -4 6 -8 13 -8 11 0 13 45 13 218 -1 188 -3 221 -17 235 -9 9 -19 13 -23
10 -3 -4 -6 -2 -6 4 0 10 -20 19 -60 28 -8 2 -16 9 -18 14 -2 6 -12 11 -21 11
-10 0 -21 3 -25 7 -3 4 -16 8 -29 10 -48 7 -57 9 -63 16 -4 4 -16 7 -26 7 -10
0 -18 3 -18 8 0 4 -15 8 -32 9 -18 2 -52 4 -75 6 -23 1 -45 6 -49 10 -9 9
-298 9 -308 0z"/>
<path d="M12146 4323 c-4 -4 -24 -9 -44 -10 -77 -6 -139 -20 -161 -37 -12 -9
-13 -8 -6 4 8 13 5 12 -15 -1 -14 -9 -33 -15 -42 -13 -10 1 -18 -2 -18 -6 0
-8 -19 -17 -45 -22 -24 -4 -105 -50 -105 -60 0 -5 -6 -8 -14 -5 -8 3 -17 -1
-20 -9 -3 -8 -12 -14 -21 -14 -8 0 -15 -4 -15 -10 0 -5 -5 -10 -11 -10 -7 0
-27 -16 -45 -35 -19 -18 -34 -32 -34 -30 0 3 -9 -3 -19 -12 -11 -9 -18 -20
-15 -25 3 -4 0 -8 -6 -8 -12 0 -56 -48 -59 -65 -2 -5 -9 -14 -17 -18 -8 -5
-12 -12 -9 -18 4 -5 1 -9 -4 -9 -6 0 -22 -22 -36 -50 -14 -27 -22 -50 -19 -50
3 0 0 -10 -9 -23 -8 -12 -18 -38 -22 -57 -4 -19 -10 -39 -13 -45 -4 -5 -7 -19
-8 -30 -1 -11 -5 -31 -8 -45 -15 -67 -17 -81 -18 -122 0 -24 -3 -47 -6 -53 -9
-14 -10 -125 -2 -125 4 0 7 -27 8 -59 0 -33 6 -69 12 -80 6 -13 7 -21 1 -21
-6 0 -4 -15 5 -35 8 -19 11 -35 8 -35 -4 0 -1 -7 6 -15 7 -9 10 -18 7 -21 -3
-4 3 -22 13 -42 11 -19 17 -39 14 -44 -3 -4 -1 -8 3 -8 5 0 14 -15 21 -33 7
-18 20 -42 30 -53 10 -10 18 -23 19 -28 0 -14 26 -47 62 -80 18 -17 37 -41 42
-53 5 -13 15 -23 22 -23 7 0 27 -15 43 -32 16 -18 36 -34 44 -36 8 -2 17 -8
18 -13 2 -5 10 -9 18 -9 8 0 14 -4 14 -9 0 -5 14 -14 30 -21 17 -7 30 -16 30
-21 0 -5 7 -6 15 -3 8 4 15 1 15 -6 0 -6 5 -8 10 -5 6 3 10 1 10 -4 0 -6 11
-11 25 -11 14 0 25 -5 25 -11 0 -5 5 -7 10 -4 6 3 10 2 10 -4 0 -5 9 -8 20 -6
11 2 20 0 20 -6 0 -5 12 -9 26 -9 14 0 34 -4 44 -10 18 -10 60 -17 153 -27 26
-3 47 -8 47 -11 0 -11 317 -4 400 8 41 5 94 11 118 12 23 1 42 6 42 11 0 5 11
6 24 3 14 -3 28 -2 31 4 3 5 19 10 35 10 16 0 32 5 35 10 4 6 15 8 26 5 10 -4
19 -2 19 4 0 5 8 10 18 9 23 0 59 9 75 19 6 4 15 8 20 9 4 1 8 2 10 3 1 2 12
4 24 7 12 2 41 12 63 21 34 15 41 22 37 41 -2 12 -1 22 2 22 3 0 6 14 6 30 0
17 -3 30 -7 30 -4 0 -4 10 0 23 6 19 7 62 2 77 -5 13 -5 58 0 55 3 -2 5 19 5
46 0 27 -4 49 -8 49 -5 0 -5 5 -2 10 4 6 6 36 6 68 -1 99 -1 126 3 147 2 11
-1 26 -7 33 -6 8 -6 12 2 12 7 0 9 5 5 12 -7 11 -7 64 0 103 2 11 1 24 -2 29
-8 14 -9 55 -1 50 9 -5 3 61 -6 77 -4 6 -21 9 -37 7 -16 -3 -31 -2 -33 2 -3 4
-24 4 -47 0 -24 -5 -50 -4 -60 1 -12 7 -18 6 -18 -1 0 -6 -5 -8 -12 -4 -14 9
-58 12 -58 4 0 -7 -146 -4 -159 4 -6 4 -11 2 -11 -4 0 -6 -5 -8 -12 -4 -7 5
-31 7 -53 5 -22 -1 -48 -2 -57 -2 -10 1 -26 1 -35 2 -10 0 -34 -1 -53 -3 -19
-2 -45 0 -57 4 -13 4 -25 3 -28 -3 -4 -5 -10 -7 -14 -5 -4 3 -7 -82 -6 -187
l0 -192 110 -1 c61 -1 117 -2 125 -3 13 -1 16 -19 15 -103 l0 -102 -30 -7
c-82 -20 -126 -25 -195 -22 -102 3 -180 14 -180 24 0 5 -6 6 -14 3 -8 -3 -17
0 -21 5 -3 6 -11 8 -17 5 -6 -4 -13 -3 -17 2 -3 5 -32 22 -64 38 -32 15 -61
35 -64 42 -3 8 -11 14 -19 14 -8 0 -14 5 -14 10 0 6 -7 10 -15 10 -8 0 -17 11
-21 25 -3 13 -15 27 -25 30 -11 4 -17 11 -14 16 4 5 1 9 -5 9 -6 0 -8 5 -5 10
3 6 1 10 -5 10 -6 0 -9 4 -6 9 3 5 -1 14 -9 21 -8 7 -12 16 -9 21 3 5 1 9 -4
9 -5 0 -9 6 -10 13 0 6 -4 23 -7 37 -4 14 -10 42 -12 62 -3 21 -8 36 -12 34
-8 -6 -6 88 3 103 4 6 10 28 12 49 7 54 10 64 24 97 26 62 45 99 60 117 37 47
109 116 114 110 3 -3 6 0 6 6 0 7 7 12 15 12 7 0 19 8 24 18 6 9 11 13 11 9 0
-5 10 -1 22 7 12 9 31 16 41 16 10 0 16 4 12 10 -3 5 16 12 45 16 27 4 50 10
50 14 0 4 12 6 28 4 15 -1 39 3 55 11 15 7 27 10 27 7 0 -4 20 -7 45 -7 25 0
45 4 45 8 0 5 6 5 12 1 7 -5 44 -10 83 -11 38 -2 85 -5 103 -6 17 -1 32 -5 32
-10 0 -5 6 -7 13 -4 10 3 99 -23 167 -50 8 -3 18 -5 23 -5 4 1 7 -2 7 -6 0 -4
25 -16 55 -27 30 -10 55 -22 55 -27 0 -5 4 -7 9 -4 5 3 11 0 14 -8 8 -19 45
-27 51 -10 3 8 1 14 -4 14 -6 0 -6 9 -1 23 5 12 5 31 1 42 -4 11 -4 30 1 42 5
13 4 25 -1 28 -6 3 -6 15 0 30 5 13 5 27 1 30 -5 3 -5 21 -1 40 5 20 4 33 -1
29 -5 -3 -5 5 0 18 5 15 5 31 0 41 -6 9 -6 17 -2 17 4 0 8 20 8 44 0 24 -3 42
-7 39 -5 -2 -8 1 -8 6 0 6 -13 11 -30 11 -16 0 -30 5 -30 11 0 5 -5 7 -10 4
-6 -4 -17 -1 -25 5 -8 6 -19 9 -24 6 -5 -4 -12 -2 -16 4 -3 5 -16 10 -29 10
-12 0 -26 3 -30 7 -3 4 -14 8 -24 9 -32 6 -67 13 -107 24 -59 16 -95 22 -142
24 -23 1 -45 5 -49 9 -10 9 -438 9 -448 0z"/>
<path d="M117 4300 c-9 -4 -12 -214 -12 -925 0 -910 0 -920 20 -931 11 -6 24
-8 30 -5 16 8 516 7 522 -2 2 -4 10 -4 16 0 17 10 117 11 123 1 3 -5 10 -5 16
-2 18 11 78 13 84 3 3 -5 11 -6 17 -2 17 10 117 11 123 1 3 -5 10 -5 16 -2 18
11 78 13 84 3 3 -5 11 -6 17 -2 17 10 117 11 123 1 3 -5 10 -5 16 -2 18 11 78
13 84 3 3 -5 11 -6 17 -2 7 4 35 8 62 8 l50 1 0 224 0 225 -424 0 -424 0 -1
113 c-1 68 3 112 9 112 7 0 7 3 0 8 -13 9 -13 145 0 154 7 5 7 8 0 8 -6 0 -10
32 -10 75 0 43 4 75 10 75 7 0 7 3 0 8 -6 4 -10 39 -10 77 0 39 4 73 10 77 7
5 7 8 0 8 -6 0 -10 121 -9 345 0 238 -3 345 -10 346 -47 4 -539 3 -549 -1z"/>
<path d="M1851 4290 c-5 -11 -7 -1813 -2 -1840 1 -3 168 -6 372 -5 204 0 373
-3 376 -8 2 -4 10 -4 16 0 17 10 117 11 123 1 3 -5 10 -5 16 -2 18 11 78 13
84 3 3 -5 11 -6 17 -2 17 10 117 11 123 1 3 -4 13 -4 22 0 20 10 62 10 79 -1
6 -4 14 -4 17 1 3 5 39 8 81 6 70 -2 75 -1 76 20 1 11 2 98 3 193 l1 172 -413
-1 c-227 0 -416 3 -419 6 -10 10 -10 130 0 144 5 6 5 12 1 12 -10 0 -11 200
-2 216 4 5 161 9 388 8 339 0 382 1 390 16 5 9 4 23 -1 33 -6 9 -6 17 -2 17
10 0 10 41 0 57 -4 5 -4 13 0 17 10 9 10 56 0 56 -4 0 -3 8 2 18 6 11 6 24 0
35 -6 9 -6 17 -2 17 4 0 8 11 8 25 0 14 -4 25 -8 25 -4 0 -3 9 3 19 7 15 5 25
-10 43 -11 12 -19 19 -20 13 0 -12 -110 -14 -110 -2 0 5 -6 5 -12 1 -15 -10
-48 -13 -48 -5 0 3 -17 5 -37 4 -117 -8 -143 -8 -143 0 0 4 -8 3 -19 -2 -10
-6 -21 -8 -24 -4 -7 6 -48 6 -144 0 -29 -1 -53 0 -53 3 0 3 -11 5 -25 5 -14 0
-25 -2 -25 -5 0 -10 -105 -5 -112 5 -11 14 -10 27 1 20 6 -3 7 6 3 22 -9 35
-8 245 1 259 4 6 25 11 47 10 22 -1 40 2 40 7 0 4 5 5 12 1 17 -11 58 -11 58
-1 0 4 6 5 13 0 18 -11 111 -10 120 2 6 7 10 7 13 0 5 -11 214 -12 232 -1 7 4
12 4 12 -1 0 -10 132 -9 148 1 7 4 12 4 12 -1 0 -4 23 -8 50 -8 48 0 51 2 59
30 4 17 4 31 0 33 -4 2 -4 14 1 27 5 14 5 27 1 29 -5 3 -5 25 -1 48 5 24 4 50
-1 59 -4 9 -5 29 -1 45 9 32 8 71 -2 81 -3 3 -1 11 4 18 6 8 6 12 -3 13 -6 1
-320 3 -695 5 -600 2 -685 0 -691 -13z"/>
<path d="M4320 4300 c-13 -9 -44 -74 -42 -87 2 -7 -2 -13 -8 -13 -5 0 -10 -6
-10 -14 0 -8 -7 -27 -15 -43 -13 -27 -30 -63 -89 -195 -14 -32 -28 -69 -32
-83 -3 -14 -10 -25 -15 -25 -5 0 -9 -3 -8 -7 2 -15 -14 -53 -22 -53 -5 0 -6
-6 -3 -14 3 -8 0 -17 -5 -21 -6 -3 -9 -11 -6 -16 4 -5 1 -9 -4 -9 -6 0 -11 -7
-11 -15 0 -8 -5 -15 -10 -15 -6 0 -9 -3 -8 -7 4 -15 -36 -112 -44 -107 -4 3
-8 -2 -8 -10 0 -8 -5 -27 -12 -43 -6 -15 -11 -31 -10 -35 1 -5 -3 -8 -8 -8 -5
0 -9 -3 -8 -7 0 -5 -2 -16 -5 -25 -11 -29 -16 -48 -16 -54 0 -4 -3 -10 -8 -13
-13 -10 -33 -49 -33 -66 0 -8 -4 -15 -10 -15 -5 0 -7 -7 -4 -15 4 -8 1 -15 -5
-15 -6 0 -11 -7 -11 -15 0 -8 -4 -15 -10 -15 -5 0 -7 -7 -4 -15 4 -8 1 -15 -6
-15 -6 0 -9 -4 -6 -8 2 -4 -6 -29 -19 -55 -14 -26 -25 -51 -26 -55 -1 -4 -6
-18 -11 -32 -5 -14 -9 -27 -8 -29 1 -2 -3 -7 -9 -11 -6 -3 -14 -17 -16 -30 -2
-13 -8 -26 -12 -29 -5 -3 -9 -10 -10 -16 -4 -22 -49 -120 -55 -123 -5 -2 -8
-9 -8 -16 0 -7 -6 -26 -14 -42 -7 -16 -20 -44 -27 -61 -8 -18 -18 -33 -22 -33
-5 0 -5 -4 -2 -10 3 -5 3 -16 -2 -22 -4 -7 -8 -15 -9 -18 -4 -18 -48 -106 -55
-108 -5 -2 -7 -8 -4 -13 3 -4 -2 -20 -10 -33 -17 -25 -17 -25 14 -21 17 2 33
-1 37 -6 3 -6 11 -6 17 -1 7 4 125 8 264 7 246 -1 252 -1 258 19 4 12 6 27 6
34 -1 6 3 12 9 12 7 0 10 6 8 12 -3 7 1 19 9 26 7 8 11 18 8 23 -4 5 -1 9 4 9
6 0 10 3 10 8 -1 4 0 10 1 15 1 4 3 10 4 15 7 28 19 52 26 52 5 0 9 8 9 18 0
25 25 92 34 92 5 0 6 3 4 8 -15 24 39 27 411 27 257 0 392 -3 393 -10 1 -5 1
-14 0 -18 -1 -4 5 -15 14 -23 8 -9 15 -24 15 -34 0 -10 5 -22 10 -25 6 -4 8
-11 5 -16 -4 -5 -2 -9 4 -9 5 0 8 -9 6 -20 -2 -11 0 -18 5 -15 8 5 26 -51 22
-67 -1 -5 3 -8 9 -8 5 0 7 -4 4 -10 -3 -5 -3 -10 2 -10 7 0 29 -53 37 -90 2
-9 14 -15 32 -15 16 0 34 -3 40 -7 6 -4 14 -4 18 -1 10 10 116 11 122 1 3 -5
10 -5 16 -2 18 11 78 13 84 3 3 -5 11 -6 17 -2 17 10 117 11 123 1 3 -4 13 -4
22 0 9 5 41 8 70 7 48 -1 52 0 46 19 -4 12 -11 23 -15 24 -5 2 -7 8 -3 13 3 5
0 9 -6 9 -7 0 -10 6 -7 13 2 6 -7 31 -20 55 -13 23 -21 42 -18 42 4 0 -3 15
-14 34 -12 18 -21 41 -21 50 0 9 -4 16 -10 16 -5 0 -10 11 -10 24 0 13 -4 26
-9 28 -5 2 -11 12 -13 23 -1 11 -5 22 -8 25 -9 9 -34 65 -32 73 1 4 -7 17 -18
29 -10 11 -17 24 -15 29 3 4 -7 31 -22 61 -15 29 -26 59 -25 66 2 6 -1 12 -6
12 -4 0 -14 17 -22 37 -7 21 -19 53 -27 70 -7 18 -13 36 -12 39 0 3 -8 12 -18
19 -10 7 -15 17 -11 20 4 4 -4 27 -17 50 -13 24 -29 62 -36 84 -7 23 -15 41
-19 41 -4 0 -13 20 -20 45 -7 25 -17 45 -21 45 -5 0 -8 3 -7 8 2 7 -12 40 -45
110 -11 23 -20 49 -20 57 0 8 -3 15 -7 15 -4 0 -13 18 -20 40 -7 22 -18 40
-23 40 -5 0 -7 9 -4 20 3 11 2 20 -2 20 -9 0 -90 176 -97 213 -2 11 -9 24 -16
29 -7 4 -9 8 -5 8 5 0 0 12 -11 28 -10 15 -17 33 -15 40 3 6 0 12 -6 12 -6 0
-10 3 -9 8 1 6 -4 21 -36 92 l-11 25 -308 0 c-170 0 -312 -2 -317 -5z m339
-563 c18 -60 37 -105 49 -120 7 -8 10 -22 6 -31 -3 -9 -2 -16 4 -16 5 0 13
-12 18 -27 8 -32 7 -28 25 -70 7 -18 17 -33 22 -33 4 0 5 -5 2 -10 -3 -6 2
-29 13 -53 38 -84 52 -118 52 -131 0 -8 7 -19 15 -26 8 -7 12 -16 9 -22 -3 -5
0 -16 7 -24 6 -8 9 -17 6 -21 -9 -8 -508 -10 -513 -1 -2 4 0 9 5 13 6 3 8 12
4 20 -3 8 0 15 7 15 6 0 9 4 5 9 -3 5 -1 12 5 16 6 4 8 10 5 15 -3 5 2 15 10
24 9 8 15 17 15 18 -1 2 3 16 9 31 6 16 9 33 5 38 -3 5 1 9 9 9 10 0 13 7 10
20 -3 11 0 20 6 20 6 0 10 3 9 8 -1 4 3 18 9 32 14 32 25 64 23 69 -1 2 2 7 7
10 7 5 31 61 37 86 1 6 7 20 14 32 7 12 12 29 12 37 0 9 5 16 10 16 6 0 9 3 8
8 -1 4 4 24 11 44 15 44 36 42 50 -5z"/>
<path d="M7789 4294 c-11 -5 -17 -13 -13 -17 4 -4 7 -413 7 -909 0 -497 2
-908 4 -913 2 -7 98 -11 283 -11 246 0 280 2 281 16 1 19 1 1810 0 1830 -1 13
-38 15 -272 15 -170 0 -278 -4 -290 -11z"/>
<path d="M8873 4300 c-17 -5 -18 -46 -18 -928 0 -507 4 -922 8 -922 5 0 5 -5
1 -11 -4 -8 -1 -8 12 -2 16 8 89 10 104 3 3 -1 10 -1 15 0 29 7 76 7 81 -1 3
-5 11 -6 17 -2 17 10 117 11 123 1 3 -5 11 -5 17 -1 7 4 53 8 102 8 l90 0 2
450 c1 248 3 474 3 503 l0 54 29 -24 c15 -13 27 -25 25 -27 -2 -2 36 -44 84
-93 48 -49 89 -94 91 -101 2 -7 41 -47 85 -90 45 -43 81 -81 81 -85 0 -4 16
-23 35 -42 19 -19 34 -38 32 -42 -1 -4 3 -8 8 -8 6 0 30 -20 54 -45 25 -25 42
-45 39 -45 -3 0 13 -19 36 -41 22 -23 41 -45 41 -50 0 -5 6 -9 13 -10 6 0 32
-25 57 -55 25 -30 79 -90 121 -132 42 -42 81 -86 87 -97 10 -19 21 -20 271
-20 l260 -1 -3 53 c-2 33 1 53 8 53 7 0 8 3 1 8 -12 8 -14 260 -2 279 4 6 4
14 0 16 -10 6 -10 403 0 413 3 4 3 14 -1 23 -10 20 -9 207 0 217 4 4 4 14 0
23 -10 20 -9 202 1 217 3 6 3 14 0 18 -10 10 -10 226 0 226 5 0 5 6 0 13 -11
18 -10 241 2 249 6 5 6 8 -2 8 -6 0 -10 9 -8 20 3 15 -2 20 -18 21 -86 4 -509
3 -524 -1 -18 -5 -28 -50 -10 -50 5 0 5 -6 -2 -13 -8 -10 -7 -17 1 -25 7 -7 8
-12 3 -12 -6 0 -10 -40 -10 -90 0 -50 3 -90 7 -90 4 0 4 -10 0 -22 -9 -30 -9
-89 1 -105 5 -7 5 -13 0 -13 -4 0 -8 -41 -8 -90 0 -50 3 -90 7 -90 4 0 4 -10
0 -22 -9 -30 -9 -89 1 -105 5 -7 5 -13 0 -13 -4 0 -8 -41 -8 -90 0 -50 3 -90
7 -90 4 0 4 -10 -1 -22 -5 -13 -7 -34 -5 -48 4 -24 3 -24 -26 8 -16 17 -34 32
-40 32 -5 0 -10 6 -10 14 0 8 -38 53 -85 100 -47 46 -85 87 -85 91 0 3 -16 21
-35 41 -19 19 -35 39 -35 44 0 6 -5 10 -11 10 -12 0 -89 77 -89 90 0 4 -16 22
-35 39 -19 17 -35 34 -35 38 -1 4 -19 22 -40 38 -21 17 -39 33 -40 36 0 10
-47 62 -135 151 -44 45 -79 85 -77 90 1 4 -3 8 -9 8 -5 0 -7 5 -4 10 4 6 3 9
-2 8 -10 -3 -103 90 -103 104 0 5 -5 6 -10 3 -6 -3 -14 2 -18 12 -4 10 -14 20
-22 22 -23 6 -476 7 -497 1z"/>
</g>
</svg>
