<svg width="150" height="150" viewBox="0 0 150 150" fill="none" xmlns="http://www.w3.org/2000/svg">
<mask id="path-1-inside-1_2_2138" fill="white">
<path d="M150 75C150 116.421 116.421 150 75 150C33.5786 150 0 116.421 0 75C0 33.5786 33.5786 0 75 0C116.421 0 150 33.5786 150 75Z"/>
</mask>
<path d="M150 75C150 116.421 116.421 150 75 150C33.5786 150 0 116.421 0 75C0 33.5786 33.5786 0 75 0C116.421 0 150 33.5786 150 75Z" fill="white" stroke="#0066FF" stroke-width="2" mask="url(#path-1-inside-1_2_2138)"/>
<mask id="path-2-inside-2_2_2138" fill="white">
<path d="M104.783 76.9643C104.333 72.0393 103.591 71.0802 103.311 70.7194C102.667 69.8858 101.637 69.341 100.547 68.7694C100.485 68.7377 100.432 68.6923 100.392 68.6371C100.351 68.5818 100.324 68.5181 100.313 68.451C100.302 68.3839 100.307 68.3151 100.328 68.2503C100.349 68.1854 100.385 68.1262 100.433 68.0772C100.635 67.8776 100.79 67.6377 100.888 67.3741C100.986 67.1105 101.024 66.8294 101 66.5501C100.953 66.0548 100.716 65.5948 100.338 65.2614C99.9592 64.928 99.4658 64.7454 98.9556 64.75H97.0053C96.9217 64.7505 96.8383 64.7558 96.7553 64.7658C96.6984 64.7418 96.6394 64.7226 96.579 64.7086C95.4239 62.3283 93.8424 59.0694 90.5644 57.4789C85.7024 55.1219 76.7461 55 74.9959 55C73.2456 55 64.2893 55.1219 59.4336 57.4753C56.1556 59.0657 54.5741 62.3247 53.4189 64.7049L53.4089 64.7244C53.3513 64.7323 53.2947 64.7462 53.2402 64.7658C53.1572 64.7558 53.0737 64.7505 52.9901 64.75H51.0361C50.5259 64.7454 50.0325 64.928 49.6539 65.2614C49.2753 65.5948 49.039 66.0548 48.992 66.5501C48.9698 66.8288 49.0096 67.1088 49.1086 67.3711C49.2077 67.6334 49.3636 67.8717 49.5659 68.0699C49.6142 68.1188 49.6503 68.1781 49.6712 68.243C49.692 68.3078 49.6972 68.3765 49.6861 68.4437C49.6751 68.5108 49.6482 68.5745 49.6076 68.6298C49.567 68.685 49.5137 68.7303 49.4521 68.7621C48.3619 69.3374 47.3268 69.8822 46.6879 70.7121C46.4079 71.0778 45.6678 72.032 45.2165 76.957C44.9664 79.7284 44.9289 82.5974 45.1252 84.445C45.5365 88.2841 46.3079 90.6046 46.3404 90.7008C46.4588 91.0512 46.6766 91.3617 46.9687 91.5962C47.2608 91.8307 47.6152 91.9796 47.9906 92.0256V92.05C47.9906 92.5672 48.2014 93.0632 48.5765 93.4289C48.9516 93.7946 49.4604 94 49.9909 94H56.992C57.5225 94 58.0313 93.7946 58.4064 93.4289C58.7815 93.0632 58.9923 92.5672 58.9923 92.05C60.0687 92.05 60.8175 91.8623 61.6114 91.6624C62.7575 91.3614 63.9291 91.1611 65.1119 91.064C68.9262 90.7094 72.7193 90.5875 74.9959 90.5875C77.2262 90.5875 81.1868 90.7094 85.0073 91.064C86.1948 91.1613 87.371 91.3624 88.5216 91.6649C89.2817 91.855 90.0031 92.0305 91.002 92.0488C91.002 92.566 91.2127 93.0619 91.5878 93.4276C91.963 93.7933 92.4717 93.9988 93.0023 93.9988H100.003C100.534 93.9988 101.043 93.7933 101.418 93.4276C101.793 93.0619 102.004 92.566 102.004 92.0488V92.0342C102.38 91.989 102.735 91.8405 103.028 91.6059C103.321 91.3714 103.54 91.0604 103.659 90.7094C103.691 90.6131 104.463 88.2926 104.874 84.4535C105.07 82.6047 105.035 79.7406 104.783 76.9643ZM57.0345 66.3722C58.0346 64.3003 59.1785 61.9554 61.2151 60.967C64.158 59.5386 70.2577 58.8951 74.9959 58.8951C79.7341 58.8951 85.8337 59.5338 88.7766 60.967C90.8132 61.9554 91.9521 64.3015 92.9572 66.3722L93.0823 66.6366C93.1554 66.7872 93.1877 66.9535 93.1761 67.1197C93.1646 67.2859 93.1095 67.4464 93.0163 67.586C92.923 67.7256 92.7946 67.8395 92.6433 67.917C92.4921 67.9944 92.3229 68.0328 92.1521 68.0284C87.9978 67.9187 79.2465 67.5677 74.9959 67.5677C70.7452 67.5677 61.9939 67.9273 57.8333 68.037C57.6625 68.0413 57.4934 68.0029 57.3421 67.9255C57.1909 67.848 57.0625 67.7341 56.9692 67.5945C56.8759 67.455 56.8209 67.2944 56.8093 67.1282C56.7978 66.962 56.8301 66.7957 56.9032 66.6452C56.947 66.555 56.9932 66.4636 57.0345 66.3722ZM58.5259 76.0771C56.3754 76.3294 54.2111 76.4539 52.045 76.45C50.7198 76.45 49.3533 76.0844 49.0995 74.9339C48.9258 74.16 48.9445 73.7249 49.0383 73.2873C49.117 72.9156 49.2421 72.6451 49.8672 72.55C51.4924 72.3063 52.4013 72.6122 55.0617 73.3763C56.8257 73.8821 58.0984 74.5561 58.8235 75.0899C59.1873 75.3531 58.9935 76.0405 58.5259 76.0771ZM86.2025 86.0708C84.5573 86.2536 81.2668 86.1866 75.0334 86.1866C68.7999 86.1866 65.5107 86.2536 63.8655 86.0708C62.1677 85.8868 60.0036 84.3219 61.4814 82.9277C62.4653 82.0087 64.7606 81.3213 67.8173 80.935C70.874 80.5487 72.1679 80.35 75.0209 80.35C77.8738 80.35 79.0365 80.4719 82.2244 80.9362C85.4124 81.4006 87.8215 82.0965 88.5604 82.9289C89.908 84.4206 87.899 85.877 86.2025 86.0781V86.0708ZM100.892 74.9327C100.642 76.088 99.2669 76.4488 97.9467 76.4488C95.7392 76.4493 93.5335 76.3248 91.3408 76.0758C90.9582 76.0405 90.7807 75.386 91.1682 75.0887C91.8821 74.5414 93.1685 73.8809 94.93 73.3751C97.5904 72.6109 99.1244 72.305 100.442 72.5598C100.763 72.6219 100.933 72.9583 100.953 73.1691C101.042 73.7562 101.021 74.354 100.892 74.9339V74.9327Z"/>
</mask>
<path d="M104.783 76.9643C104.333 72.0393 103.591 71.0802 103.311 70.7194C102.667 69.8858 101.637 69.341 100.547 68.7694C100.485 68.7377 100.432 68.6923 100.392 68.6371C100.351 68.5818 100.324 68.5181 100.313 68.451C100.302 68.3839 100.307 68.3151 100.328 68.2503C100.349 68.1854 100.385 68.1262 100.433 68.0772C100.635 67.8776 100.79 67.6377 100.888 67.3741C100.986 67.1105 101.024 66.8294 101 66.5501C100.953 66.0548 100.716 65.5948 100.338 65.2614C99.9592 64.928 99.4658 64.7454 98.9556 64.75H97.0053C96.9217 64.7505 96.8383 64.7558 96.7553 64.7658C96.6984 64.7418 96.6394 64.7226 96.579 64.7086C95.4239 62.3283 93.8424 59.0694 90.5644 57.4789C85.7024 55.1219 76.7461 55 74.9959 55C73.2456 55 64.2893 55.1219 59.4336 57.4753C56.1556 59.0657 54.5741 62.3247 53.4189 64.7049L53.4089 64.7244C53.3513 64.7323 53.2947 64.7462 53.2402 64.7658C53.1572 64.7558 53.0737 64.7505 52.9901 64.75H51.0361C50.5259 64.7454 50.0325 64.928 49.6539 65.2614C49.2753 65.5948 49.039 66.0548 48.992 66.5501C48.9698 66.8288 49.0096 67.1088 49.1086 67.3711C49.2077 67.6334 49.3636 67.8717 49.5659 68.0699C49.6142 68.1188 49.6503 68.1781 49.6712 68.243C49.692 68.3078 49.6972 68.3765 49.6861 68.4437C49.6751 68.5108 49.6482 68.5745 49.6076 68.6298C49.567 68.685 49.5137 68.7303 49.4521 68.7621C48.3619 69.3374 47.3268 69.8822 46.6879 70.7121C46.4079 71.0778 45.6678 72.032 45.2165 76.957C44.9664 79.7284 44.9289 82.5974 45.1252 84.445C45.5365 88.2841 46.3079 90.6046 46.3404 90.7008C46.4588 91.0512 46.6766 91.3617 46.9687 91.5962C47.2608 91.8307 47.6152 91.9796 47.9906 92.0256V92.05C47.9906 92.5672 48.2014 93.0632 48.5765 93.4289C48.9516 93.7946 49.4604 94 49.9909 94H56.992C57.5225 94 58.0313 93.7946 58.4064 93.4289C58.7815 93.0632 58.9923 92.5672 58.9923 92.05C60.0687 92.05 60.8175 91.8623 61.6114 91.6624C62.7575 91.3614 63.9291 91.1611 65.1119 91.064C68.9262 90.7094 72.7193 90.5875 74.9959 90.5875C77.2262 90.5875 81.1868 90.7094 85.0073 91.064C86.1948 91.1613 87.371 91.3624 88.5216 91.6649C89.2817 91.855 90.0031 92.0305 91.002 92.0488C91.002 92.566 91.2127 93.0619 91.5878 93.4276C91.963 93.7933 92.4717 93.9988 93.0023 93.9988H100.003C100.534 93.9988 101.043 93.7933 101.418 93.4276C101.793 93.0619 102.004 92.566 102.004 92.0488V92.0342C102.38 91.989 102.735 91.8405 103.028 91.6059C103.321 91.3714 103.54 91.0604 103.659 90.7094C103.691 90.6131 104.463 88.2926 104.874 84.4535C105.07 82.6047 105.035 79.7406 104.783 76.9643ZM57.0345 66.3722C58.0346 64.3003 59.1785 61.9554 61.2151 60.967C64.158 59.5386 70.2577 58.8951 74.9959 58.8951C79.7341 58.8951 85.8337 59.5338 88.7766 60.967C90.8132 61.9554 91.9521 64.3015 92.9572 66.3722L93.0823 66.6366C93.1554 66.7872 93.1877 66.9535 93.1761 67.1197C93.1646 67.2859 93.1095 67.4464 93.0163 67.586C92.923 67.7256 92.7946 67.8395 92.6433 67.917C92.4921 67.9944 92.3229 68.0328 92.1521 68.0284C87.9978 67.9187 79.2465 67.5677 74.9959 67.5677C70.7452 67.5677 61.9939 67.9273 57.8333 68.037C57.6625 68.0413 57.4934 68.0029 57.3421 67.9255C57.1909 67.848 57.0625 67.7341 56.9692 67.5945C56.8759 67.455 56.8209 67.2944 56.8093 67.1282C56.7978 66.962 56.8301 66.7957 56.9032 66.6452C56.947 66.555 56.9932 66.4636 57.0345 66.3722ZM58.5259 76.0771C56.3754 76.3294 54.2111 76.4539 52.045 76.45C50.7198 76.45 49.3533 76.0844 49.0995 74.9339C48.9258 74.16 48.9445 73.7249 49.0383 73.2873C49.117 72.9156 49.2421 72.6451 49.8672 72.55C51.4924 72.3063 52.4013 72.6122 55.0617 73.3763C56.8257 73.8821 58.0984 74.5561 58.8235 75.0899C59.1873 75.3531 58.9935 76.0405 58.5259 76.0771ZM86.2025 86.0708C84.5573 86.2536 81.2668 86.1866 75.0334 86.1866C68.7999 86.1866 65.5107 86.2536 63.8655 86.0708C62.1677 85.8868 60.0036 84.3219 61.4814 82.9277C62.4653 82.0087 64.7606 81.3213 67.8173 80.935C70.874 80.5487 72.1679 80.35 75.0209 80.35C77.8738 80.35 79.0365 80.4719 82.2244 80.9362C85.4124 81.4006 87.8215 82.0965 88.5604 82.9289C89.908 84.4206 87.899 85.877 86.2025 86.0781V86.0708ZM100.892 74.9327C100.642 76.088 99.2669 76.4488 97.9467 76.4488C95.7392 76.4493 93.5335 76.3248 91.3408 76.0758C90.9582 76.0405 90.7807 75.386 91.1682 75.0887C91.8821 74.5414 93.1685 73.8809 94.93 73.3751C97.5904 72.6109 99.1244 72.305 100.442 72.5598C100.763 72.6219 100.933 72.9583 100.953 73.1691C101.042 73.7562 101.021 74.354 100.892 74.9339V74.9327Z" fill="#0066FF" stroke="#0066FF" stroke-width="2" mask="url(#path-2-inside-2_2_2138)"/>
</svg>
